<?xml version="1.0" encoding="UTF-8" standalone="no"?>
<!-- Created with Inkscape (http://www.inkscape.org/) -->

<svg
   xmlns:dc="http://purl.org/dc/elements/1.1/"
   xmlns:cc="http://creativecommons.org/ns#"
   xmlns:rdf="http://www.w3.org/1999/02/22-rdf-syntax-ns#"
   xmlns:svg="http://www.w3.org/2000/svg"
   xmlns="http://www.w3.org/2000/svg"
   xmlns:sodipodi="http://sodipodi.sourceforge.net/DTD/sodipodi-0.dtd"
   xmlns:inkscape="http://www.inkscape.org/namespaces/inkscape"
   height="860"
   width="725"
   viewBox="0 0 725 860"
   id="svg2"
   version="1.1"
   inkscape:version="0.91 r13725"
   sodipodi:docname="1F4EF_📯.svg">
  <defs
     id="defs8" />
  <sodipodi:namedview
     pagecolor="#ffffff"
     bordercolor="#666666"
     borderopacity="1"
     objecttolerance="10"
     gridtolerance="10"
     guidetolerance="10"
     inkscape:pageopacity="0"
     inkscape:pageshadow="2"
     inkscape:window-width="1920"
     inkscape:window-height="1031"
     id="namedview6"
     showgrid="false"
     inkscape:showpageshadow="false"
     borderlayer="true"
     units="px"
     showguides="true"
     inkscape:guide-bbox="true"
     inkscape:zoom="0.62861793"
     inkscape:cx="423.11147"
     inkscape:cy="238.32723"
     inkscape:window-x="0"
     inkscape:window-y="27"
     inkscape:window-maximized="1"
     inkscape:current-layer="svg2"
     inkscape:snap-bbox="true"
     inkscape:bbox-paths="true"
     inkscape:bbox-nodes="true"
     inkscape:snap-bbox-edge-midpoints="true"
     inkscape:snap-bbox-midpoints="true"
     inkscape:object-paths="true"
     inkscape:snap-smooth-nodes="true"
     inkscape:snap-midpoints="true"
     inkscape:snap-center="true"
     inkscape:snap-object-midpoints="true"
     inkscape:snap-page="true"
     inkscape:snap-text-baseline="true"
     inkscape:snap-intersection-paths="true"
     inkscape:object-nodes="true">
    <sodipodi:guide
       position="1000,140"
       orientation="0,1"
       id="guide3140"
       inkscape:label="baseline"
       inkscape:color="rgb(0,0,255)" />
    <sodipodi:guide
       position="1000,720"
       orientation="0,1"
       id="guide3142"
       inkscape:label="cap line"
       inkscape:color="rgb(0,0,255)" />
    <sodipodi:guide
       position="58,0"
       orientation="1,0"
       id="guide3144"
       inkscape:label="lead line"
       inkscape:color="rgb(0,0,255)" />
    <sodipodi:guide
       position="667,0"
       orientation="1,0"
       id="guide3146"
       inkscape:label="leg line"
       inkscape:color="rgb(0,0,255)" />
    <sodipodi:guide
       position="725,0"
       orientation="1,0"
       id="guide3167"
       inkscape:label="width"
       inkscape:color="rgb(0,0,255)" />
    <sodipodi:guide
       position="1000,860"
       orientation="0,1"
       id="guide3169"
       inkscape:label="height"
       inkscape:color="rgb(0,0,255)" />
  </sodipodi:namedview>
  <metadata
     id="metadata4">
    <rdf:RDF>
      <cc:Work
         rdf:about="">
        <dc:format>image/svg+xml</dc:format>
        <dc:type
           rdf:resource="http://purl.org/dc/dcmitype/StillImage" />
        <dc:title></dc:title>
      </cc:Work>
    </rdf:RDF>
  </metadata>
  <path
     style="color:#000000;clip-rule:nonzero;display:inline;overflow:visible;visibility:visible;opacity:1;isolation:auto;mix-blend-mode:normal;color-interpolation:sRGB;color-interpolation-filters:linearRGB;solid-color:#000000;solid-opacity:1;fill:#000000;fill-opacity:1;fill-rule:nonzero;stroke:none;stroke-width:8;stroke-linecap:butt;stroke-linejoin:miter;stroke-miterlimit:4;stroke-dasharray:none;stroke-dashoffset:0;stroke-opacity:1;color-rendering:auto;image-rendering:auto;shape-rendering:auto;text-rendering:auto;enable-background:accumulate"
     d="m 58.0039,305.72198 a 304.5,345.9285 0 0 0 37.2754,165.8457 304.5,345.9285 0 0 0 15.9082,29.4766 304.5,345.9285 0 0 0 18.4199,27.5254 304.5,345.9285 0 0 0 20.748,25.2988 304.5,345.9285 0 0 0 160.3907,92.7402 304.5,345.9285 0 0 0 51.7539,5.0332 304.5,345.9285 0 0 0 21.0352,-1.1953 304.5,345.9285 0 0 0 0.5195,-0.07 304.5,345.9285 0 0 0 27.0078,-3.6739 304.5,345.9285 0 0 0 3.9668,-0.6874 304.5,345.9285 0 0 0 24.1719,-6.1153 304.5,345.9285 0 0 0 6.2597,-1.8281 304.5,345.9285 0 0 0 21.0879,-7.916 304.5,345.9285 0 0 0 8.5157,-3.5489 304.5,345.9285 0 0 0 10.2636,-4.6035 279.2286,317.21882 0 0 1 -1.3183,0.074 A 304.5,345.9285 0 0 0 667,305.71428 l -81.1992,0 a 223.3,253.6809 0 0 1 -113.2149,220.3496 124.28568,124.28568 0 0 0 12.7422,-54.6348 124.28568,124.28568 0 0 0 -124.2851,-124.2871 124.28568,124.28568 0 0 0 -112.1406,70.9883 279.2286,317.21882 0 0 1 -18.5606,-112.416 l -40.5996,0 -131.7422,0 z m 303.043,107.25 a 58.463932,58.463932 0 0 1 58.4648,58.4648 58.463932,58.463932 0 0 1 -58.4648,58.4629 58.463932,58.463932 0 0 1 -58.4649,-58.4629 58.463932,58.463932 0 0 1 58.4649,-58.4648 z"
     id="path3553-7-6-9-3"
     inkscape:connector-curvature="0" />
</svg>
